<?xml version="1.0" encoding="utf-8" ?>
<svg xmlns="http://www.w3.org/2000/svg" xmlns:xlink="http://www.w3.org/1999/xlink" width="220" height="220">
	<path fill="#2526AC" transform="scale(0.286458 0.286458)" d="M347.818 20.4375L348.846 20.441L349.208 21C349.434 25.0297 348.006 29.142 347.194 33.07C345.404 41.735 343.506 50.5067 343.466 59.3748C343.402 73.9183 345.761 88.164 347.517 102.562C348.917 114.04 349.629 125.346 349.725 136.906C349.903 158.24 347.65 178.613 336.687 197.438C331.105 207.024 322.962 216.818 313.03 222.118C308.749 224.403 304.332 225.693 299.673 226.949L303.263 268.875C305.567 284.478 309.743 299.754 315.127 314.558C316.573 318.533 318.074 323.212 320.363 326.8C323.824 332.225 328.31 336.016 332.911 340.383C341.914 348.926 351.178 357.141 361.367 364.257C368.314 369.108 375.986 373.148 382.74 378.189C381.9 373.419 380.33 368.828 379.663 364.006C379.255 361.053 378.765 358.05 378.542 355.077C378.407 353.271 378.752 350.635 378.332 348.969C378.29 348.804 378.258 348.601 378.117 348.505C377.652 348.191 375.621 347.992 374.973 347.838C372.992 347.368 370.969 346.727 369.07 345.988C358.193 341.756 350.365 331.896 345.814 321.471C337.936 303.422 339.263 281.671 346.354 263.599C357.507 235.176 378.577 212.2 400.571 191.645L428.062 166.599L442.455 152.516C445.224 149.792 448.285 145.947 451.875 144.394L452.486 144.859L452.524 145.181C452.781 147.828 451.892 150.577 451.493 153.188L448.955 170.25C448.112 176.21 447.658 182.603 447.351 188.625C446.449 206.307 448.202 223.861 448.359 241.516C448.411 247.346 447.968 253.04 447.578 258.844C445.984 282.566 441.028 305.859 425.715 324.797C415.205 337.795 401.1 346.287 384.36 347.994C384.435 354.398 385.536 361.105 386.441 367.459C386.925 370.859 387.143 374.299 387.812 377.671C388.047 378.856 387.967 379.102 389.062 379.777C393.741 382.662 400.184 384.369 405.539 385.528C407.847 386.027 410.368 386.632 412.731 386.665C414.957 386.696 417.078 386.155 419.25 385.759C422.066 385.245 424.346 383.926 426.799 382.513C433.12 378.872 438.61 373.893 444.724 369.918C456.661 362.158 469.504 355.295 482.968 350.581C510.467 340.951 539.69 339.539 568.5 341.881C580.211 342.833 591.69 344.31 603.188 346.807C631.582 352.972 658.849 364.539 681.955 382.334L705.561 400.845C709.644 404.065 713.649 407.545 717.933 410.484L737.243 423.437C739.722 424.996 742.461 426.214 744.879 427.86C745.761 428.46 746.319 429.242 746.891 430.125C746.355 431.71 744.913 432.377 743.507 433.187C733.738 438.814 722.674 442.383 712.572 447.454C693.812 456.869 675.809 467.026 655.721 473.461C638.571 478.954 620.603 481.484 602.642 481.602C597.234 481.637 591.794 481.694 586.405 481.181C572.364 479.844 558.496 476.603 545.065 472.377C534.984 469.205 525.009 465.553 515.627 460.646C506.48 455.861 498.045 449.883 489.744 443.777C468.342 428.033 448.3 407.679 423.507 397.388C416.376 394.428 408.416 392.43 400.971 390.431L425.707 412.731C444.445 429.74 464.175 446.245 486.257 458.757C499.257 466.123 512.735 472.64 526.434 478.602L553.688 489.833C562.726 493.829 571.268 498.768 579.69 503.909C624.65 531.354 655.573 577.447 667.751 628.333L670.797 643.118C673.277 654.876 676.476 666.874 676.464 678.954C676.463 680.434 676.74 682.201 675.969 683.464C675.566 683.493 674.576 683.437 674.25 683.587C672.709 684.296 672.844 685.111 670.829 685.378C668.536 685.681 665.785 684.615 663.642 683.809C659.088 682.095 654.746 679.914 650.289 677.976L627.964 668.656L591.253 653.703L560.468 641.062C553.753 638.043 547.078 634.422 540.798 630.58C530.508 624.286 521.449 616.65 512.544 608.574C509.018 605.376 505.844 601.967 502.1 598.99L504.63 610.587L508.053 632.617L514.417 681.823L518.744 703.017L520.626 712.092C521.915 717.206 527.319 734.045 526.28 737.78L525.851 737.913C524.18 738.249 522.499 737.36 521.134 736.496C514.804 732.494 509.737 726.074 504.149 721.073C487.739 708.194 469.08 699.518 451.519 688.502C439.129 680.73 426.73 671.628 416.462 661.174C379.635 623.675 366.321 569.406 369.512 518.052C370.476 502.538 373.028 487.156 376.099 471.938C380.756 448.865 389.248 426.856 387.729 402.946C387.516 399.587 387.455 395.684 386.542 392.438C385.175 387.579 378.246 384.276 374.105 382.195C372.717 387.05 370.33 391.659 368.393 396.313L356.54 424.464L341.763 457.938C333.549 474.378 323.638 490.22 311.69 504.216C302.301 515.215 291.473 524.6 279.917 533.242C274.383 537.382 268.677 541.581 262.739 545.117C233.274 562.663 200.219 573.233 165.962 575.389C157.26 575.937 148.367 575.718 139.647 575.595C128.135 575.431 115.907 575.577 104.682 572.761L105.686 570.316L122.448 533.632C125.861 526.182 129.011 518.378 132.853 511.156C146.427 485.638 166.3 464.367 192.197 451.173C196.842 448.806 201.872 447.01 206.704 445.059C200.592 444.296 194.296 443.632 188.255 442.414C180.761 440.902 173.28 438.577 165.979 436.342C156.829 433.54 147.53 430.48 138.698 426.775C113.492 416.201 89.7699 401.527 68.1119 384.913C52.8315 373.191 38.7917 360.014 23.0061 348.895C28.4289 347.989 33.8737 348.272 39.3351 347.981C47.7922 347.53 56.3898 345.643 64.5168 343.346C83.4153 338.004 99.8733 326.585 116.952 317.332C125.772 312.554 134.866 308.592 144.374 305.392C158.282 300.712 173.305 298.678 187.92 298.196C203.192 297.692 218.598 298.475 233.589 301.574C253.065 305.599 272.106 313.467 289.953 322.139L311.282 333.626C315.383 335.986 319.336 338.519 323.584 340.614L231.82 256.904C230.792 257.197 229.797 257.966 228.848 258.49C227.111 259.451 225.313 260.276 223.453 260.969C212.503 265.05 201.035 266.824 189.373 266.62C152.989 265.986 119.829 241.144 98.9391 212.912C87.0824 196.888 77.5608 179.241 65.0084 163.725C59.9768 157.505 53.7601 151.099 47.4968 146.124C42.2769 141.978 36.8466 138.691 32.1517 133.864L119.26 150.855C117.303 147.946 114.719 145.656 112.392 143.062C109.805 140.18 107.443 136.794 105.339 133.544C99.0967 123.905 94.3113 113.607 91.3471 102.496C88.8317 93.0671 87.8917 83.3832 87.1695 73.6899L85.5618 39.4865C85.5248 38.1776 85.2934 36.1602 86.25 35.1484L86.623 35.1597C88.4959 35.4865 90.3843 38.0021 91.6357 39.3459C98.8006 47.0404 105.837 53.7685 114.903 59.2239C124.855 65.2124 135.622 69.6238 146.053 74.6723C163.922 83.3214 181.037 94.5321 193.032 110.681C199.27 119.08 203.946 128.454 208.074 138.028L215.575 155.807C219.423 165.373 223.269 175.156 229.592 183.39L227.65 176.574C218.987 148.513 222.767 113.593 236.49 87.7314C250.138 62.0117 272.649 43.2866 300.828 35.6124C311.057 32.8268 321.798 31.6735 331.923 28.6426C335.476 27.579 338.682 26.0354 341.809 24.0582C343.794 22.8025 345.535 21.1289 347.818 20.4375ZM537.967 496.824L538.435 496.021C539.219 495.686 539.919 495.336 540.783 495.306C541.461 495.282 541.893 495.142 542.529 494.914L542.46 494.25C543.155 493.75 542.927 494.072 543.184 493.312L542.25 492.566L541.696 492.715C538.92 490.726 535.462 489.692 532.345 488.336L516.298 481.147C498.358 472.583 481.267 463.427 464.676 452.421C446.486 440.354 429.701 425.656 413.444 411.138L402.552 401.554C399.258 398.464 396.438 395.15 392.702 392.547C393.969 398.715 395.149 404.544 395.24 410.884C395.287 414.17 394.85 417.306 394.527 420.562C393.158 434.348 389.311 447.259 385.888 460.618L379.852 488.338C376.32 507.716 375.929 527.203 377.379 546.789C378.267 558.784 379.723 570.88 382.495 582.604C385.903 597.019 391.191 611.637 398.438 624.586C410.488 646.117 428.171 664.079 448.704 677.595L476.924 694.535C485.312 699.247 493.676 703.662 501.408 709.459C505.264 712.35 509.01 716.083 512.273 719.625C513.903 721.395 515.454 723.736 517.3 725.233C514.477 711.917 510.106 698.922 507.781 685.5L499.619 621.721C497.277 607.991 493.522 594.723 489.91 581.298C483.067 555.866 475.554 530.263 465.266 505.978L452.99 480.375C449.523 473.549 446.175 466.589 442.085 460.11C442.754 466.258 444.171 472.296 444.285 478.506C444.476 488.961 443.198 499.375 442.599 509.781L442.192 532.198C441.32 556.607 438.707 583.823 448.582 606.798C451.309 613.142 455.187 619.123 458.749 625.018L466.746 638.25L484.707 664.523L496.707 681.562C497.17 682.243 497.281 682.068 497.062 682.906C496.022 683.132 495.217 682.982 494.33 682.393C490.438 679.807 487.261 674.265 484.439 670.551C473.278 655.861 462.243 641.106 452.958 625.125L446.201 612.44C444.668 609.294 443.296 605.958 441.468 602.978C438.858 611.287 437.982 619.895 439.614 628.5C440.379 632.53 441.791 636.539 443.057 640.436C441.866 638.97 440.544 637.475 439.643 635.812C434.567 626.449 435.754 615.35 436.827 605.199C437.266 601.048 438.293 596.899 438.388 592.719C438.494 588.057 437.698 583.437 437.403 578.788L436.571 551.812L437.765 514.312C438.646 495.547 440.397 475.5 436.595 456.953C435.174 450.02 431.36 444.621 427.033 439.194C422.682 433.737 417.752 428.654 412.968 423.577C406.549 416.766 401.059 410.954 398.341 401.784L652.688 641.124L653.172 640.875C653.309 640.025 653.246 639.589 652.931 638.789C649.351 629.716 644.678 620.948 640.752 611.995C637.322 604.174 634.633 596.102 630.812 588.439C628.554 583.91 625.963 579.628 622.991 575.532C614.984 564.499 604.192 555.101 592.083 548.803C586.444 545.87 580.423 543.338 574.253 541.769C571.67 541.112 568.997 540.906 566.438 540.133C565.384 539.815 565.002 539.609 564.411 538.688C564.843 537.957 564.993 537.69 565.87 537.424C567.842 536.826 570.723 537.302 572.712 537.659C582.7 539.449 592.96 544.155 601.551 549.457C612.292 556.088 622.214 565.647 628.897 576.375C636.996 589.377 641.902 604.651 647.603 618.814L654.105 634.108C655.117 636.505 656.44 638.92 657.062 641.45C657.529 643.349 656.903 645.051 658.121 646.691C660.439 649.813 662.92 652.857 666.04 655.216C663.836 640.936 660.768 626.125 656.134 612.421C643.622 575.419 621.468 542.032 589.745 518.811C580.255 511.864 570.425 505.519 559.962 500.138C557.318 498.778 553.691 496.697 550.738 496.187C547.04 495.549 542.319 496.133 538.613 496.72L537.967 496.824ZM187.532 306.165C169.944 307.443 152.125 309.981 135.651 316.537C123.421 321.404 112.351 328.096 100.926 334.532C81.7963 345.31 61.9114 353.196 39.7917 354.389C41.9171 356.656 45.6639 358.582 48.2506 360.387C50.8547 362.204 53.3116 364.256 55.7671 366.268L80.6184 385.382L91.685 393.408C116.418 409.629 143.52 421.931 171.817 430.386C184.516 434.181 198.04 437.825 211.348 438.249C226.909 438.744 241.624 436.711 256.85 433.865L283.261 428.484L304.61 422.768C312.776 420.58 321.11 418.846 328.791 415.205C332.879 413.267 336.666 410.209 339.952 407.128L344.983 401.842C337.381 403.283 329.588 403.874 321.887 402.938C317.761 402.435 313.713 401.295 309.656 400.414C308.981 400.268 306.97 399.61 306.426 399.714C306.139 399.769 305.23 400.486 304.947 400.677C302.79 402.136 300.87 403.919 298.83 405.532C296.614 407.285 294.266 408.967 291.863 410.452C281.734 416.708 270.633 421.312 259.102 424.227C257.367 424.666 251.352 426.566 249.99 425.65C250.767 423.931 254.088 422.618 255.87 421.932L271.396 416.598C283.037 412.077 292.804 405.068 302.361 397.17C297.985 395.145 293.462 393.532 288.954 391.829C275.347 386.687 259.785 382.071 245.51 387.372C239.455 389.62 233.788 393.082 228.334 396.499C214.454 405.194 200.182 416.205 183.413 418.353C179.334 418.875 174.766 418.648 170.658 418.483C167.077 418.34 163.498 417.916 159.956 417.38C158.183 417.112 155.976 416.909 154.321 416.201L153.505 415.746L153.304 414.938C155.514 413.276 163.269 414.904 166.125 415.079C169.551 415.29 173.113 415.39 176.531 415.107C199.584 413.201 216.615 396.465 236.074 386.054C237.413 385.337 238.746 384.635 240.167 384.094L247.585 381.429C248.173 381.196 249.12 380.983 249.514 380.489C246.916 379.299 244.184 378.506 241.499 377.542C234.545 375.045 227.783 372.967 220.5 371.609C214.244 370.442 207.879 369.919 201.562 369.175C181.366 366.795 161.457 366.08 141.12 365.965L110.556 366.53L92.8675 367.561C90.7115 367.622 88.2771 367.946 86.1978 367.312L85.5891 366.562C87.2897 364.249 90.5652 363.912 93.293 363.508C105.184 361.744 117.409 361.919 129.404 361.806L159.192 361.718L175.173 361.556L193.172 362.747C179.727 349.42 159.421 340.664 140.955 337.194C138.075 336.652 135.147 336.102 132.231 335.794C129.541 335.511 126.823 335.659 124.127 335.398C123.679 335.355 122.262 335.277 121.91 335.062C121.585 334.865 121.477 334.438 121.261 334.125C122.449 332.813 125.103 332.91 126.835 332.83C147.281 331.882 170.641 340.915 187.292 352.441C190.013 354.324 192.833 356.187 195.285 358.421C197.069 360.046 198.509 361.942 199.712 364.024C211.941 364.906 223.489 365.872 235.189 369.905C243.135 372.644 250.876 376.381 258.908 378.745C256.889 373.668 254.249 368.854 251.642 364.059C241.766 345.891 227.653 327.403 208.095 319.047C205.552 317.96 198.742 316.533 197.438 314.32C198.543 313.301 200.121 313.417 201.606 313.48C204.819 313.617 208.121 315.02 211.04 316.272C222.08 321.005 230.464 327.389 238.364 336.502C245.089 344.259 250.783 352.886 255.719 361.875C256.993 364.195 265.356 380.621 265.929 380.969C266.229 381.15 267.641 381.18 268.033 381.229L273.531 381.981C276.467 382.461 279.452 383.165 282.289 384.058C286.378 385.345 290.376 387.073 294.493 388.221C295.558 388.518 297.035 389.099 298.125 389.133C298.595 389.148 298.67 389.099 299.062 388.984C299.83 387.044 299.921 385.604 299.137 383.667C296.596 377.386 293.277 371.868 289.646 366.182C285.289 359.359 280.674 352.589 275.176 346.624C272.585 343.812 269.584 341.338 266.736 338.789C265.544 337.723 262.725 335.599 263.351 333.872C268.875 333.89 275.718 340.721 279.369 344.41C290.03 355.183 297.972 368.852 305.386 381.991C307.159 385.133 308.579 388.474 310.47 391.541C316.195 389.466 321.936 387.474 327.882 386.111L355.435 380.134C358.876 379.265 362.642 378.545 365.772 376.815C362.285 374.281 358.515 372.287 354.875 369.995L340.073 360.169C329.162 352.876 318.475 345.266 307.125 338.645C298.561 333.65 289.738 329.344 280.72 325.239C266.393 318.717 251.697 313.094 236.25 309.862C225.748 307.665 215.054 306.697 204.344 306.308C198.804 306.107 193.063 305.779 187.532 306.165ZM442.044 381.511C441.827 382.28 440.907 382.628 440.25 383.066C439.338 383.065 437.681 383.31 437.062 382.691L436.688 383.066L436.127 383.252L435.215 383.809L435.424 384.898L436.097 385.875C434.901 387.051 433.401 387.799 431.958 388.631C433.106 388.877 434.379 389.392 435.48 388.9L436.263 389.059L434.261 390.562C438.981 392.525 444.257 393.489 449.25 394.508L476.625 400.153L490.37 403.507C493.174 404.233 496.263 405.442 499.166 405.446C505.658 405.455 510.592 403.424 516.34 400.608C524.045 396.833 531.627 391.697 537.15 385.059C539.547 382.179 541.362 378.734 543.338 375.562C548.095 367.927 553.746 363.179 562.255 360.305C561.125 361.961 558.988 363.493 557.504 364.874C553.965 368.171 550.902 371.354 548.055 375.298C543.328 381.846 539.758 388.86 533.428 394.099C529.567 397.295 524.979 400.16 520.537 402.473C518.456 403.557 516.312 404.505 514.146 405.405C512.893 405.925 511.617 406.162 510.787 407.25C511.184 407.774 511.237 407.99 511.329 408.675L511.395 409.312C514.295 410.96 519.11 411.284 522.419 411.983C529.971 413.578 537.559 415.554 545.25 416.373C548.708 416.741 552.356 416.943 555.807 416.415L556.5 416.305C572.794 413.811 582.882 397.888 594.334 387.73C599.287 383.337 605.127 379.767 610.875 376.523C613.97 374.776 617.334 372.478 620.812 371.662L621.323 372.375C621.204 372.707 621.155 372.906 620.981 373.197C618.915 376.668 612.057 379.521 608.661 381.49C606.228 382.901 603.846 384.495 601.605 386.194C591.843 393.596 584.954 403.735 575.318 411.149C571.137 414.366 565.822 416.98 560.815 418.608C566.81 419.768 573.05 419.812 579.148 420.157C585.114 420.494 591.721 421.336 597.647 420.587C606.736 419.437 617.252 412.769 624.642 407.679C631.708 402.813 638.048 398.085 646.5 395.932C649.077 395.276 651.463 395.191 654.109 395.229C662.135 395.344 669.73 398.638 677.167 401.306C679.999 402.322 684.041 403.202 686.153 405.375L685.819 406.007C682.402 406.428 677.905 404.207 674.71 403.046C667.359 400.375 659.549 397.234 651.569 397.824C639.103 398.745 630.381 408.269 620.191 414.234C617.74 415.669 615.11 416.85 612.556 418.089C611.105 418.793 609.676 419.296 608.616 420.562L608.776 421.688C610.876 422.295 613.057 422.215 615.225 422.336L625.91 422.827L702.122 423.457L717.24 424.09C721.931 424.44 726.386 425.018 731.118 424.969C725.802 420.999 719.856 417.848 714.531 413.92C690.31 396.052 667.411 376.461 639.375 364.574C631.978 361.438 624.26 359.126 616.567 356.862C604.522 353.318 592.015 350.325 579.533 348.836C561.302 346.662 543.324 346.242 525.039 347.929C515.924 348.769 506.685 349.945 497.813 352.268C477.05 357.705 455.807 368.613 438.938 381.885L438.938 382.427C440.417 382.474 440.769 382.192 442.044 381.511ZM90.8238 44.3941C90.8961 51.2384 91.8216 58.2156 92.4198 65.043C93.0424 72.1484 93.3858 79.191 94.5013 86.25C97.7731 106.955 106.641 129.83 121.734 144.79C128.38 151.379 137.165 154.309 145.625 157.762C122.19 160.717 97.8662 155.98 75.1112 150.506C68.6125 148.943 61.8543 146.111 55.2737 145.175C68.3763 155.628 77.2812 169.095 86.3072 182.96C94.4809 195.515 102.905 208.583 112.832 219.815C125.218 233.828 140.444 245.744 157.886 252.733C171.201 258.067 186.341 260.906 200.706 259.317C210.547 258.228 219.821 253.894 228.266 248.972L210.329 227.265C208.026 224.323 205.317 221.351 203.522 218.075C197.947 220.553 192.423 223.27 186.639 225.237C168.242 231.494 147.692 231.096 129.557 224.219C128.316 223.748 127.297 223.272 126.28 222.416L126.188 221.73C127.676 221.099 129.433 221.753 131.012 222.075L141.75 224.235C144.562 224.773 147.417 225.107 150.266 225.369C157.049 225.991 164.463 225.973 171.188 224.755L179.156 222.995C185.999 220.984 194.303 217.96 200.254 213.982L172.476 176.812C157.426 186.564 140.102 189.797 122.499 185.994C110.716 183.448 96.3862 176.881 89.0452 166.865C96.0668 169.435 101.604 173.959 108.202 177.292C125.865 186.212 145.893 185.584 163.607 177.369C167.249 175.68 170.766 173.259 174.56 172.002L185.259 186.752C187.305 189.615 189.519 193.908 192.628 195.665C190.895 189.775 187.638 183.935 185.104 178.311C175.887 157.851 166.179 138.389 154.318 119.29C152.016 120.022 149.9 121.283 147.657 122.181C145.558 123.021 143.326 123.463 141.118 123.91C137.764 124.589 134.2 124.302 130.875 123.621L130.344 123.518C127.822 123.002 125.227 122.035 122.909 120.938C114.32 116.871 105.455 109.53 102.236 100.279C101.686 98.6987 101.427 97.0797 101.438 95.4124C102.031 94.4768 102.07 94.5011 103.125 94.1365C104.824 95.2471 105.196 97.8902 106.096 99.7209C106.834 101.22 107.813 102.701 108.764 104.073C114.929 112.969 129.002 123.161 140.42 120.809C144.77 119.912 148.265 117.94 151.918 115.508L90.8238 44.3941ZM362.578 392.062C354.997 397.647 349.674 405.227 343.962 412.579L335.316 423.297C332.174 427.312 329.179 431.449 325.568 435.07C320.508 440.145 314.405 444.678 308.43 448.644C299.822 454.358 290.633 459.173 281.625 464.21L264.055 474.479L235.787 489.91L211.32 504.794L165.169 532.908L132.604 553.67C126.261 557.977 118.367 562.891 113.485 568.837C113.895 569.244 113.656 569.118 114.188 569.238L136.362 568.531C148.148 568.509 160.111 569.191 171.841 568.051C219.544 563.411 264.654 542.001 298.125 507.718C306.722 498.913 314.686 489.612 321.44 479.306C328.913 467.903 334.74 455.343 340.287 442.92L363.024 392.812C362.796 392.125 363.004 392.328 362.578 392.062ZM436.745 396.188C443.444 400.87 450.443 405.016 456.955 409.997C479.472 427.217 500.648 446.985 526.875 458.54C538.871 463.826 551.711 467.218 564.473 470.061C587.481 475.187 610.701 475.82 633.938 471.662C651.272 468.559 668.141 462.894 683.882 455.017C695.16 449.372 705.965 442.943 717.583 437.957C724.492 434.991 731.999 433.041 739.17 430.758C733.301 429.179 727.574 428.781 721.555 428.274C704.463 426.834 687.233 427.516 670.083 427.514L623.438 426.476L622.691 426.938C624.39 430.75 637.763 436.46 641.997 438.079C645.126 439.275 648.602 440.365 651.91 440.928C657.623 441.9 662.787 442.02 668.316 444.109C663.324 444.608 658.797 444.352 653.839 443.907C650.298 443.219 646.68 442.625 643.226 441.57C636.832 439.615 630.755 436.495 625.05 433.047C621.169 430.701 617.675 427.632 613.301 426.272C609.838 425.196 606.214 425.111 602.625 424.894C593.015 424.311 583.454 424.789 573.852 423.879L574.456 425.894C576.041 431.492 579.662 437.764 583.352 442.265C591.882 452.67 603.353 458.913 616.781 460.301C625.184 461.17 633.971 460.644 642.186 458.639C651.729 456.31 660.976 452.057 670.125 448.513C677.882 445.508 685.74 443.114 693.884 441.415C689.668 445.402 681.979 446.88 676.658 448.935C665.052 453.419 653.926 459.022 641.704 461.75C634.924 463.263 628.276 463.613 621.355 463.427C607.463 463.054 592.423 457.624 582.803 447.364C579.117 443.432 576.035 439.157 573.771 434.25L570.188 425.4C569.973 424.878 569.631 423.748 569.161 423.473C568.961 423.356 567.514 423.342 567.202 423.314L561.877 422.686L530.516 418.045C511.695 414.387 493.184 408.821 474.594 404.156L454.648 399.836C448.682 398.593 442.799 396.955 436.745 396.188ZM488.745 495.938C488.351 499.178 491.394 503.577 492.594 506.575L497.234 518.944C501.177 529.458 504.379 540.417 506.565 551.438C508.5 561.196 508.586 571.859 511.764 581.304C513.857 587.522 517.236 593.008 521.249 598.154C527.431 606.082 536.61 612.669 544.954 618.189C548.247 620.367 551.855 622.263 554.894 624.778L554.625 625.4C552.208 625.46 550.02 623.984 547.737 624.188L547.399 625.312C549.237 627.493 553.777 629.337 556.358 630.67C574.279 639.923 593.11 647.443 611.852 654.852L637.835 665.209L653.821 673.168L664.482 679.023C666.32 679.984 668.282 681.179 670.312 681.648L671.362 681.087C671.534 679.67 670.227 677.638 669.709 676.312C667.212 669.911 665.053 664.69 660.781 659.219C642.918 636.338 620.403 617.882 599.39 598.094L569.979 571.065C565.558 567.114 561.187 562.658 556.318 559.283C559.045 567.058 560.709 574.872 562.695 582.831C564.451 589.873 566.256 596.801 569.524 603.328C576.068 616.398 589.497 626.443 601.312 634.436C610.565 640.695 621.149 645.679 629.555 652.992C622.758 650.809 617.367 647.266 611.227 643.745C593.713 633.7 575.109 622.741 565.479 604.113C557.141 587.983 557.225 569.279 547.684 553.461C544.348 547.933 539.657 542.834 535.26 538.133C524.729 526.874 513.053 516.924 501.602 506.642L493.349 499.151C491.918 497.889 490.614 496.486 488.745 495.938ZM271.07 56.8125C266.916 59.472 263.571 62.5944 260.089 66.0636C243.058 83.0312 234.838 105.324 229.697 128.345C228.117 135.416 227.622 142.715 227.683 149.943C227.787 162.308 229.611 175.697 236.486 186.301C246.587 201.883 260.019 215.112 278.763 218.928C283.625 219.918 289.118 220.144 294.072 219.983C294.734 212.982 294.081 205.645 294.275 198.57L295.542 177.003C295.571 175.226 295.66 173.519 295.034 171.832L294.188 171.482C292.037 172.496 290.303 174.236 288.436 175.688C284.546 178.713 279.387 179.931 274.655 180.893C271.502 181.535 268.249 181.516 265.045 181.523C256.658 181.542 248.835 180.556 241.7 175.759C237.537 172.961 234.619 169.258 232.388 164.796L238.747 169.832C240.941 171.497 243.087 172.751 245.517 174.025C254.096 178.522 268.236 179.365 277.5 176.329C281.938 174.875 285.94 172.975 289.888 170.492C284.55 167.756 279.17 165.155 274.126 161.885C262.358 154.255 249.304 141.694 244.768 128.108C243.897 125.501 242.642 121.12 243.656 118.448L244.312 118.027C244.978 118.258 245.049 118.12 245.379 118.796C246.133 120.342 246.438 122.224 246.938 123.873C247.565 125.945 248.454 128.056 249.449 129.98C256.331 143.282 268.213 154.431 281.357 161.468C285.91 163.905 290.91 165.668 295.363 168.21L299.436 133.871C293.837 130.978 289.672 127.197 285.322 122.692C277.536 114.627 270.821 105.057 267.372 94.3052L266.098 89.0303C264.542 81.5703 265.392 72.874 268.248 65.8409C268.651 64.849 272.792 57.2965 272.684 57C272.617 56.8141 272.396 56.7292 272.252 56.5938L271.07 56.8125ZM327.76 423.101L307.512 428.082L258.562 440.441C245.679 443.42 232.302 444.033 219.375 447.016C213.756 448.313 208.421 450.52 203.151 452.815C178.708 463.459 158.859 481.48 144.223 503.666C136.841 514.856 131.39 526.811 125.438 538.767C122.293 545.082 118.398 551.818 116.228 558.512L123.316 552.958L152.215 533.627L168.684 523.681C173.08 521.092 177.429 518.72 181.364 515.441C175.767 513.825 170.016 513.73 164.25 514.444L163.713 514.506C158.234 515.174 152.533 517.368 147.641 519.819C143.816 521.735 140.37 523.913 136.331 525.411C145.462 516.369 157.402 510.484 170.491 510.453C173.129 510.446 176.253 510.662 178.787 511.394C180.054 511.76 184.52 513.956 185.514 513.643C187.277 513.088 189.478 510.856 191.068 509.812C194.161 507.781 197.598 506.192 200.793 504.311C193.627 501.785 187.616 501.344 180.095 502.43C176.225 503.333 171.984 504.825 168.052 505.24C175.927 499.839 184.889 497.527 194.403 499.218C197.982 499.854 201.697 501.062 204.999 502.584L238.443 482.176C234.618 480.543 230.781 479.598 226.778 478.54C218.015 476.224 208.418 474.352 199.344 474.455C194.959 474.505 190.552 475.364 186.18 475.748C185.245 475.831 184.387 476.198 183.717 475.5C183.967 474.703 183.723 474.907 184.234 474.639C187.245 473.058 190.537 472.459 193.875 472.037C207.562 470.305 222.644 473.7 235.659 477.8C237.798 478.474 239.682 479.591 241.616 480.705L256.56 471.904C253.84 470.614 251.162 469.504 248.262 468.682C243.34 467.287 238.257 466.508 233.343 465.012C231.227 464.368 229.215 463.835 227.645 462.188L227.812 461.551C231.255 461.286 235.615 462.847 238.995 463.693C243.414 464.799 248.058 465.684 252.347 467.219C253.64 467.681 259.573 470.757 259.948 470.749C260.418 470.739 262.532 469.242 263.036 468.943L276.691 460.457C270.656 457.536 264.536 454.851 257.977 453.301C254.381 452.451 250.482 452.111 246.8 451.726C244.698 451.507 241.788 451.612 239.926 450.562L240.188 449.943C242.945 449.171 246.055 449.29 248.896 449.418C258.666 449.861 268.282 452.531 276.793 457.412L279.523 459.133C284.126 457.747 289.247 454.519 293.311 451.914C289.046 449.396 284.898 447.347 280.108 446.002C277.569 445.289 274.877 444.971 272.438 443.959L272.263 443.25C274.277 441.886 277.925 442.828 280.174 443.28C282.628 443.773 285.135 444.622 287.454 445.553C288.89 446.129 296.03 449.691 296.871 449.638C297.599 449.591 300.216 447.713 300.949 447.237C311.05 440.677 322.182 433.296 329.235 423.375L328.875 422.895L327.76 423.101ZM445.549 155.438C439.488 160.552 433.915 166.613 428.295 172.229C420.502 180.015 411.759 187.114 406 196.69C404.503 199.179 403.239 202.744 402.983 205.626C402.655 209.309 404.341 211.716 406.411 214.502C413.588 201.247 417.816 186.105 429.754 175.967C427.658 181.784 424.687 186.866 421.989 192.389L415.084 207.633C413.668 210.758 411.793 213.923 410.983 217.255C412.255 217.87 413.8 218.4 414.656 219.562C414.293 220.375 413.921 220.87 413.062 221.234C411.939 221.709 410.965 221.618 409.789 221.469C409.09 222.783 408.927 224.519 408.468 225.96L404.569 238.875C403.611 241.944 402.174 245.308 402.135 248.55C403.129 249.266 404.748 249.031 405.962 248.844C412.766 247.798 419.195 242.413 423.562 237.361C424.869 235.85 426.723 232.595 428.625 232.026C429.162 232.682 429.051 232.973 428.956 233.804C428.403 238.607 421.334 244.746 417.57 247.498C414.637 249.642 410.938 251.443 407.384 252.178C405.52 252.563 403.588 252.535 401.705 252.766C401.652 252.773 400.843 252.893 400.826 252.914C400.329 253.556 399.869 257.364 399.646 258.376L394.762 280.238C397.292 279.933 399.634 279.568 402.069 278.812L402.626 278.643C405.919 277.605 409.043 275.823 411.996 274.067C417.084 270.562 421.291 266.408 424.858 261.361C426.191 259.475 427.273 257.284 428.767 255.533C429.327 254.877 429.713 254.851 430.5 254.552L431.176 255C431.135 260.505 424.825 267.584 421.096 271.312C414.065 278.343 403.925 283.706 393.955 284.773C391.08 300.627 386.712 316.229 384.982 332.271C384.638 335.461 384.085 338.721 384.209 341.93C389.804 340.565 395.214 339.089 400.456 336.653C410.905 331.796 419.367 323.781 425.31 313.989C443 284.84 441.53 248.343 441.461 215.509C441.447 208.76 441.167 201.866 441.529 195.132C441.986 186.608 443.152 178.028 444.404 169.593C445.099 164.912 446.112 160.385 446.342 155.643L445.549 155.438ZM337.755 46.8823C323.922 59.8034 317.537 78.3197 311.577 95.7822C314.683 96.6567 318.412 97.2787 321.031 99.1875C320.736 100.439 320.054 100.863 318.938 101.525C316.843 102.765 312.916 101.093 310.648 100.658L310.591 100.99L305.239 130.688C305.671 131.295 305.846 131.434 306.581 131.594C307.811 131.86 309.451 131.544 310.688 131.355C316.296 130.497 321.189 127.725 325.673 124.38C327.512 123.008 329.295 121.041 331.5 120.335L332.141 120.562C332.251 122.546 331.739 123.341 330.464 124.785C325.159 130.798 317.652 135.964 309.368 136.404C307.786 136.488 306.13 136.256 304.555 136.094L300.536 170.3C310.342 170.061 318.534 168.075 325.486 160.777C326.594 159.614 327.617 158.471 328.5 157.125C329.248 155.983 330.023 154.856 330.61 153.619C331.215 152.345 332.432 148.604 333.562 148.04C334.562 149.049 334.645 150.163 334.601 151.519C334.555 152.983 334.013 154.193 333.439 155.515C329.165 163.918 321.459 170.484 312.48 173.403C308.58 174.671 304.869 174.784 300.806 174.66L299.571 219.646C313.226 216.029 323.285 207.128 330.206 195.013C343.263 172.157 344.275 144.293 341.967 118.672L337.678 80.2446C336.793 69.0967 337.732 58.0212 337.755 46.8823ZM118.221 69.7613C129.924 82.5128 143.34 94.2873 153.585 108.257C160.68 117.932 165.645 128.613 172.04 138.666C177.449 135.021 180.126 129.888 181.656 123.686C181.829 122.984 182.091 121.2 182.556 120.707C182.828 120.42 183.227 120.287 183.562 120.077L185.062 120.764C186.152 124.253 183.525 130.42 181.878 133.581C179.822 137.529 177.474 140.055 173.917 142.679L191.955 180.375C197.961 193.187 204.144 205.964 211.744 217.928C218.979 229.315 227.551 239.472 235.971 249.953C240.584 255.357 245.452 261.804 251.142 266.07C248.529 260.334 245.17 255.025 242.102 249.53C234.053 235.115 225.631 220.509 220.147 204.878C215.132 190.586 212.969 176.016 209.07 161.475C201.315 132.558 187.181 106.054 160.875 89.9959C147.56 81.8678 132.552 75.8468 118.221 69.7613ZM220.216 184.926C222.251 192.471 225.028 199.433 228.021 206.625C234.821 222.96 243.035 238.667 251.322 254.287C256.192 263.467 260.333 272.899 266.912 281.062C275.893 292.205 287.36 301.248 298.075 310.609L310.973 322.367C305.948 307.209 300.425 291.801 297.347 276.11C294.226 260.199 293.694 243.695 293.59 227.517C274.602 228.182 256.552 221.935 242.598 208.784L220.216 184.926ZM389.47 210.938C385.37 214.504 382.163 218.822 378.725 222.992C364.072 240.765 349.593 262.824 347.994 286.5C346.956 301.866 348.886 318.165 359.426 330.211C365.005 336.588 370.974 339.323 378.946 341.765L385.669 300.243C386.766 294.266 387.485 287.599 389.674 281.926C381.381 276.205 373.972 268.755 371.978 258.422C370.356 250.016 372.321 240.628 377.301 233.611C378.055 232.548 379.026 231.616 379.949 230.701C377.715 240.422 372.18 249.447 375.965 259.651L376.198 260.309C378.647 267.059 384.307 273.568 390.169 277.573L396.561 250.712L396.201 250.48C391.484 247.384 388.752 243.502 387.634 237.916C386.435 231.927 387.338 224.155 388.809 218.294C389.384 216.005 390.778 213.249 390.565 210.912L389.47 210.938ZM304.123 40.3125C291.768 43.9751 281.046 49.2037 274.562 60.9375C269.1 70.8225 267.848 81.4061 271.07 92.25C274.472 103.699 282.708 114.305 291.117 122.584C293.897 125.276 296.671 127.468 299.832 129.674L306.06 98.4136L305.805 98.2434C299.649 93.963 294.793 85.2409 293.582 77.9297C291.81 67.2309 294.745 55.4779 301.121 46.7741C302.502 44.8895 305.389 42.849 305.63 40.5C304.95 40.2122 304.853 40.1992 304.123 40.3125ZM453.108 463.67C455.157 469.329 458.264 474.611 460.855 480.032L474.265 507.631C476.786 513.291 478.85 519.294 480.921 525.129L492.395 561.375L497.579 579.28C498.889 583.538 500.011 588.013 502.585 591.731C505.88 596.489 511.685 600.904 516.158 604.497C523.207 610.16 530.187 615.285 537.924 619.985C540.108 621.312 542.266 622.841 544.565 623.962C545.12 624.232 545.483 624.294 546.094 624.25L546.562 624.001L546.562 623.047C544.27 620.968 541.641 619.063 538.875 617.671C536.759 616.607 534.329 613.889 532.419 612.303C522.01 603.662 512.478 594.855 508.285 581.543C505.446 572.527 505.289 563.32 503.374 554.194C500.257 539.345 495.683 525.215 490.067 511.117C486.922 503.221 483.684 495.333 478.78 488.332C475.209 483.234 470.722 479.061 466.308 474.71C462.208 470.67 458.05 466.686 453.108 463.67ZM340.733 30.5625C337.498 31.6675 334.283 32.9285 330.98 33.8087L318.674 36.6018C316.908 37.0149 314.817 37.3414 313.249 38.2741C311.791 39.1418 310.472 40.6906 309.325 41.9324C306.165 45.3562 303.202 49.3058 301.13 53.4961C297.316 61.2073 294.773 70.7068 297.672 79.1845C298.902 82.7834 300.509 85.8297 302.688 88.9356C304.101 90.6985 305.529 92.2446 307.205 93.7594C311.963 79.6782 316.604 66.2824 325.114 53.9148C330.409 46.2182 338.077 39.4447 341.677 30.7676L340.733 30.5625ZM400.83 198.667C399.356 200.574 397.712 202.534 396.526 204.634C391.692 213.197 389.109 225.894 390.347 235.715C390.768 239.059 392.69 243.902 395.484 245.932L395.994 246.283L396.914 245.812C399.999 236.928 401.383 227.912 405.946 219.514C401.772 214.674 399.108 210.894 399.505 204.188C399.618 202.261 400.393 200.516 400.83 198.667ZM355.232 386.062C354.526 386.54 353.959 387.155 353.094 387.131L351.916 387.09C348.329 386.919 344.058 388.411 340.537 389.191C333.036 390.855 325.427 392.266 318.093 394.607L318.055 395.154L319.307 395.53C329.329 395.593 338.095 394.698 347.484 391.09C349.757 390.216 352.296 389.392 354.191 387.825C355 387.156 355.886 386.831 356.849 386.438L356.812 385.919C356.16 385.873 355.891 385.89 355.232 386.062ZM431.958 388.631C433.401 387.799 434.901 387.051 436.097 385.875L435.424 384.898C432.715 384.861 430.151 387.153 427.967 388.688L427.897 389.209C429.227 389.392 430.699 389.078 431.958 388.631Z"/>
	<path fill="#2B2DB6" transform="scale(0.286458 0.286458)" d="M145.059 526.568L145.575 526.511C148.099 526.268 151.062 526.252 153.045 528.056C153.947 528.876 154.423 529.778 154.458 531C153.783 531.458 154.128 531.443 153.438 531.112C151.962 530.402 150.283 529.415 148.669 529.152C146.346 528.774 143.731 529.598 141.474 530.154L136.56 531.875C135.455 532.203 133.885 532.843 132.882 532.312L133.15 531.828C134.933 528.936 141.836 527.42 145.059 526.568Z"/>
	<path fill="#2B2DB6" transform="scale(0.286458 0.286458)" d="M299.9 488.062L300.608 488.077L300.769 488.625C299.962 490.674 299.059 492.261 297.793 494.062C295.628 497.145 292.948 499.788 290.296 502.451C282.461 510.318 273.328 516.987 264.201 523.271C260.227 526.008 256.337 529.03 251.812 530.791L251.233 530.438C252.814 527.463 257.005 524.877 259.669 522.942L267.922 516.872C276.194 510.908 283.629 503.918 291.022 496.928C294.04 494.075 296.247 490.156 299.9 488.062Z"/>
	<path fill="#2B2DB6" transform="scale(0.286458 0.286458)" d="M260.75 500.062L261.938 500.041L261.807 500.625C257.263 504.613 251.193 506.932 245.957 509.9C240.276 513.119 234.933 516.669 229.576 520.394C222.021 525.648 215.147 531.85 208.472 538.159C204.702 541.722 201.013 545.602 196.983 548.864C186 557.75 171.718 563.202 157.688 564.447L156.188 563.991L156.084 563.297C159.643 561.179 164.595 560.685 168.576 559.583C175.576 557.647 183.279 554.087 189.193 549.872C198.026 543.576 205.048 535.662 212.958 528.349C222.737 519.309 233.862 512.208 245.749 506.278C250.549 503.883 255.552 501.439 260.75 500.062Z"/>
	<path fill="#2B2DB6" transform="scale(0.286458 0.286458)" d="M442.044 381.511C452.131 378.078 461.518 372.291 471.147 367.656C485.311 360.839 500.593 356.7 515.988 353.823L521.949 352.619C522.094 352.588 523.298 352.393 523.383 352.312C523.595 352.11 523.485 351.7 523.688 351.488C523.801 351.369 525.175 351.131 525.375 351.129C526.103 351.121 526.656 351.345 527.324 351.581C529.443 352.331 548.002 350.495 549.974 349.385L550.875 348.822L551.839 348.495L551.654 348.148L552.97 348.166L552.44 348.593L555.359 350.087C556.694 350.651 558.877 350.593 560.339 350.73C564.544 351.125 568.82 351.344 572.959 352.227L603.978 360.273C612.943 362.691 621.879 364.643 630.658 367.736C635.816 369.552 640.749 372.044 645.795 374.145C651.845 376.666 657.365 378.318 662.233 382.924C657.584 382.042 653.568 380.207 649.238 378.365C642.103 375.33 635.037 371.969 627.716 369.413C617.784 365.947 607.597 363.902 597.437 361.275C587.547 358.719 577.665 355.516 567.544 353.983C554.349 351.984 541.323 352.982 528.188 354.945C514.368 357.009 501.194 359.956 488.017 364.685C471.622 370.568 456.764 378.765 441.275 386.566L437.375 388.514L436.289 389.072C436.28 389.076 436.272 389.064 436.263 389.059L435.48 388.9C434.379 389.392 433.106 388.877 431.958 388.631C433.401 387.799 434.901 387.051 436.097 385.875L435.424 384.898L435.215 383.809L436.127 383.252L436.688 383.066L437.062 382.691C437.681 383.31 439.338 383.065 440.25 383.066C440.907 382.628 441.827 382.28 442.044 381.511Z"/>
	<path fill="#2B2DB6" transform="scale(0.286458 0.286458)" d="M156.425 316.312C157.56 315.966 158.575 316.059 159.75 316.173C174.416 317.6 201.524 333.793 210.378 345.386C211.53 346.894 211.938 347.857 211.688 349.713C209.392 349.487 207.767 347.452 206.11 345.978C203.459 343.621 200.775 341.261 197.91 339.167C189.852 333.279 181.394 328.2 172.367 323.947C168.764 322.249 165.017 321.03 161.312 319.593C159.588 318.925 157.627 318.36 156.188 317.183L156.425 316.312Z"/>
	<path fill="#2B2DB6" transform="scale(0.286458 0.286458)" d="M195.025 372.137C197.542 371.89 199.723 372.201 202.202 372.634C196.04 375.449 189.445 376.825 183.166 379.392C166.845 386.065 150.697 395.762 133.199 398.783C125.418 400.127 117.231 399.204 109.659 397.166C107.117 396.378 104.819 395.423 102.431 394.251C109.955 395.408 117.599 396.772 125.241 396.367C150.42 395.03 170.021 374.662 195.025 372.137Z"/>
	<path fill="#2B2DB6" transform="scale(0.286458 0.286458)" d="M541.696 492.715L542.25 492.566L543.184 493.312C542.927 494.072 543.155 493.75 542.46 494.25L542.529 494.914C541.893 495.142 541.461 495.282 540.783 495.306C539.919 495.336 539.219 495.686 538.435 496.021L537.967 496.824C532.461 497.791 527.202 498.416 521.62 498.517C523.565 497.568 525.734 496.546 527.855 496.079C530.678 495.458 533.602 495.037 536.461 494.634C537.639 494.468 539.498 494.417 540.562 493.864C540.898 493.689 541.408 493.007 541.696 492.715Z"/>
	<path fill="#2B2DB6" transform="scale(0.286458 0.286458)" d="M460.337 550.688L461.245 550.758C461.421 555.352 460.739 560.07 460.649 564.684C460.557 569.425 461.248 574.438 461.861 579.132C462.219 581.87 462.766 584.583 463.483 587.25C464.099 589.541 465.779 592.789 465.562 595.101L464.438 595.353C463.318 594.5 462.653 592.911 462.114 591.637C458.039 582.015 457.471 569.677 458.647 559.424C458.993 556.405 459.226 553.541 460.337 550.688Z"/>
	<path fill="#2B2DB6" transform="scale(0.286458 0.286458)" d="M429.088 525.188L429.894 525.151C430.281 526.196 430.507 527.027 430.298 528.141C427.012 545.618 413.385 559.445 411.567 577.204C411.278 580.028 411.179 583.039 411.548 585.86C411.85 588.168 412.391 590.421 413.07 592.645C413.495 594.036 414.492 596.362 414.042 597.743L413.275 597.938C411.592 597 410.983 594.909 410.388 593.169C404.08 574.72 412.974 560.402 420.562 544.347L429.088 525.188Z"/>
	<path fill="#2B2DB6" transform="scale(0.286458 0.286458)" d="M385.925 577.312L386.851 577.312C390.453 582.069 392.444 588.88 394.846 594.357C397.166 599.647 400.378 605.137 403.82 609.768C407.671 614.947 412.264 619.531 416.221 624.63L426.098 638.062C433.292 647.324 441.15 656.026 449.662 664.092C453.678 667.899 458.06 671.457 462.462 674.812C466.786 678.109 470.998 680.96 474.757 684.949L474.151 684.759C470.017 683.488 467.172 681.482 463.593 679.129C453.416 672.436 444.065 663.947 435.956 654.881C428.291 646.313 421.8 636.807 414.903 627.63L402.485 612.276C397.03 605.084 393.041 597.311 389.38 589.089C387.854 585.662 385.712 581.123 385.925 577.312Z"/>
	<path fill="#2B2DB6" transform="scale(0.286458 0.286458)" d="M416.772 435.938C417.625 436.21 417.762 436.302 418.366 436.984C420.694 439.612 421.22 443.338 421.384 446.734C422.195 463.602 412.361 477.927 404.786 492.159C401.668 498.018 398.77 504.211 396.261 510.356C391.856 521.144 389.141 532.233 388.312 543.869C388.235 544.601 388.217 544.653 387.75 545.288L387.188 545.097C385.638 540.237 386.184 534.639 386.782 529.645C388.657 513.984 396.223 499.184 403.588 485.443C410.203 473.101 417.754 461.439 418.247 446.968C418.373 443.285 417.464 439.535 416.772 435.938Z"/>
</svg>
