<svg xmlns="http://www.w3.org/2000/svg" width="220" height="220"><path fill="#2526AC" d="m99.635 5.854.295.001.103.16c.065 1.155-.344 2.333-.577 3.458-.512 2.482-1.056 4.995-1.067 7.535-.019 4.166.657 8.247 1.16 12.372.401 3.288.605 6.526.633 9.838.05 6.111-.595 11.947-3.735 17.34-1.6 2.746-3.932 5.551-6.777 7.07-1.226.654-2.492 1.024-3.826 1.383l1.028 12.01c.66 4.47 1.856 8.846 3.399 13.087.414 1.138.844 2.479 1.5 3.506.991 1.555 2.276 2.64 3.594 3.891 2.579 2.448 5.233 4.8 8.151 6.84 1.99 1.389 4.188 2.546 6.123 3.99-.24-1.366-.69-2.681-.881-4.063-.117-.845-.258-1.706-.322-2.557-.038-.518.06-1.273-.06-1.75-.012-.047-.021-.105-.061-.133-.134-.09-.715-.147-.901-.191a13.009 13.009 0 0 1-1.69-.53c-3.117-1.212-5.36-4.037-6.663-7.023-2.257-5.17-1.876-11.401.155-16.578 3.195-8.142 9.23-14.724 15.53-20.612l7.876-7.174 4.123-4.035c.793-.78 1.67-1.881 2.698-2.326l.175.133.011.092c.074.759-.18 1.546-.295 2.294l-.727 4.887c-.242 1.708-.372 3.54-.46 5.264-.258 5.065.244 10.094.289 15.151.015 1.67-.112 3.301-.224 4.964-.456 6.795-1.876 13.468-6.263 18.893-3.01 3.723-7.05 6.156-11.846 6.645.021 1.834.337 3.755.596 5.576.139.974.201 1.959.393 2.925.067.34.044.41.358.603 1.34.827 3.186 1.316 4.72 1.648.661.143 1.383.316 2.06.325.638.01 1.245-.146 1.868-.26.806-.146 1.46-.524 2.162-.93 1.81-1.042 3.383-2.468 5.135-3.607 3.42-2.223 7.098-4.189 10.955-5.54 7.877-2.758 16.249-3.162 24.501-2.491 3.355.272 6.643.695 9.937 1.41 8.134 1.767 15.945 5.08 22.563 10.178l6.763 5.302c1.17.923 2.316 1.92 3.544 2.761l5.531 3.71c.71.448 1.495.796 2.188 1.268.252.172.412.396.576.649-.154.454-.567.645-.97.877-2.798 1.612-5.967 2.634-8.861 4.087-5.374 2.697-10.531 5.606-16.285 7.45-4.913 1.573-10.06 2.298-15.205 2.332-1.55.01-3.108.026-4.652-.12-4.022-.384-7.994-1.312-11.842-2.523-2.888-.908-5.745-1.955-8.433-3.36-2.62-1.371-5.036-3.083-7.414-4.833-6.13-4.51-11.872-10.34-18.974-13.288-2.043-.848-4.323-1.42-6.456-1.993l7.086 6.388c5.368 4.872 11.02 9.6 17.345 13.185 3.724 2.11 7.585 3.977 11.51 5.684l7.806 3.218c2.59 1.144 5.036 2.56 7.449 4.032 12.879 7.862 21.737 21.065 25.226 35.642l.872 4.235c.71 3.368 1.627 6.805 1.624 10.266 0 .424.079.93-.142 1.292-.116.008-.4-.008-.493.035-.441.203-.402.437-.98.513-.657.087-1.445-.219-2.058-.45-1.305-.49-2.549-1.115-3.826-1.67l-6.395-2.67-10.516-4.284-8.818-3.62a51.008 51.008 0 0 1-5.635-3.003c-2.948-1.803-5.543-3.99-8.094-6.304-1.01-.916-1.919-1.893-2.991-2.746l.724 3.323.98 6.31 1.824 14.096 1.24 6.07.538 2.6c.37 1.465 1.918 6.29 1.62 7.359l-.123.038c-.478.096-.96-.158-1.351-.406-1.813-1.146-3.265-2.985-4.865-4.418-4.701-3.69-10.046-6.174-15.077-9.33-3.549-2.226-7.1-4.834-10.042-7.828-10.55-10.742-14.363-26.288-13.45-40.999.277-4.444 1.008-8.85 1.888-13.21 1.334-6.609 3.766-12.914 3.331-19.763-.06-.962-.078-2.08-.34-3.01-.392-1.392-2.376-2.338-3.563-2.934-.397 1.39-1.081 2.71-1.636 4.044l-3.395 8.064-4.233 9.589c-2.353 4.71-5.192 9.247-8.615 13.257-2.69 3.15-5.791 5.839-9.102 8.314-1.585 1.186-3.22 2.39-4.92 3.402-8.44 5.026-17.91 8.054-27.723 8.672-2.493.157-5.04.094-7.538.059-3.298-.047-6.8-.005-10.016-.812l.288-.7 4.801-10.509c.978-2.134 1.88-4.37 2.98-6.438 3.89-7.31 9.582-13.403 17-17.183 1.331-.678 2.772-1.192 4.156-1.751-1.75-.219-3.554-.41-5.285-.758-2.147-.433-4.29-1.1-6.381-1.74-2.621-.802-5.285-1.679-7.815-2.74-7.22-3.029-14.016-7.232-20.22-11.992-4.377-3.357-8.399-7.132-12.92-10.317 1.553-.26 3.112-.179 4.677-.262 2.422-.13 4.885-.67 7.213-1.328 5.414-1.53 10.129-4.801 15.02-7.452a49.71 49.71 0 0 1 7.856-3.42c3.984-1.34 8.288-1.923 12.474-2.061 4.375-.145 8.788.08 13.082.967 5.58 1.153 11.034 3.407 16.146 5.891l6.11 3.29c1.175.677 2.307 1.402 3.524 2.003l-26.286-23.98c-.295.084-.58.304-.852.455a11.43 11.43 0 0 1-1.545.71c-3.137 1.169-6.422 1.677-9.763 1.618-10.422-.181-19.921-7.297-25.905-15.385-3.397-4.59-6.124-9.645-9.72-14.09-1.441-1.781-3.222-3.616-5.016-5.042-1.495-1.187-3.051-2.129-4.396-3.512l24.953 4.868c-.56-.834-1.3-1.49-1.967-2.233-.741-.825-1.418-1.795-2.02-2.726-1.789-2.761-3.16-5.711-4.009-8.894-.72-2.701-.99-5.475-1.197-8.252l-.46-9.798c-.01-.375-.077-.953.197-1.242l.107.003c.536.093 1.077.814 1.436 1.199 2.052 2.204 4.068 4.131 6.665 5.694 2.85 1.716 5.935 2.98 8.923 4.425 5.119 2.478 10.021 5.69 13.458 10.315 1.786 2.406 3.126 5.092 4.308 7.834l2.15 5.093c1.101 2.74 2.203 5.543 4.014 7.902l-.556-1.953c-2.481-8.038-1.399-18.041 2.532-25.45 3.91-7.367 10.358-12.731 18.43-14.93 2.93-.798 6.008-1.128 8.908-1.996a11.303 11.303 0 0 0 2.832-1.313c.569-.36 1.067-.84 1.721-1.038zm54.47 136.465.134-.23c.225-.096.425-.196.673-.205a1.48 1.48 0 0 0 .5-.112l-.02-.19c.2-.143.134-.051.207-.269l-.267-.214-.159.043c-.795-.57-1.786-.866-2.679-1.254l-4.596-2.06c-5.14-2.453-10.035-5.076-14.788-8.228-5.21-3.457-10.019-7.667-14.676-11.826l-3.12-2.746c-.943-.885-1.751-1.834-2.821-2.58.363 1.767.7 3.437.727 5.253.013.941-.112 1.84-.205 2.772-.392 3.95-1.494 7.648-2.474 11.475l-1.73 7.94c-1.011 5.551-1.123 11.134-.708 16.744.255 3.436.672 6.901 1.466 10.26.976 4.129 2.49 8.316 4.567 12.026 3.452 6.167 8.517 11.313 14.399 15.185l8.084 4.852c2.403 1.35 4.798 2.615 7.013 4.275 1.105.828 2.178 1.898 3.113 2.912.467.507.91 1.178 1.44 1.607-.809-3.815-2.061-7.537-2.727-11.382l-2.338-18.27c-.671-3.933-1.747-7.734-2.781-11.58-1.96-7.285-4.113-14.619-7.06-21.576l-3.516-7.334c-.994-1.955-1.953-3.949-3.124-5.805.191 1.761.597 3.491.63 5.27.055 2.995-.311 5.978-.483 8.959l-.117 6.421c-.25 6.993-.998 14.789 1.83 21.37.782 1.817 1.893 3.53 2.913 5.22l2.291 3.79 5.145 7.526 3.438 4.88c.132.196.164.146.101.386a.934.934 0 0 1-.782-.147c-1.115-.74-2.025-2.328-2.834-3.392-3.197-4.208-6.358-8.435-9.018-13.013l-1.935-3.634c-.44-.9-.832-1.856-1.356-2.71-.748 2.38-.999 4.846-.531 7.31.22 1.155.624 2.304.986 3.42-.34-.42-.72-.848-.978-1.325-1.454-2.682-1.114-5.861-.806-8.769.125-1.189.42-2.378.447-3.575.03-1.335-.198-2.659-.282-3.99l-.239-7.728.342-10.742c.253-5.376.754-11.118-.335-16.431-.407-1.986-1.5-3.533-2.739-5.087-1.246-1.564-2.659-3.02-4.029-4.474-1.839-1.951-3.411-3.616-4.19-6.243l72.86 68.561.138-.071a.95.95 0 0 0-.069-.598c-1.025-2.599-2.364-5.11-3.488-7.675-.983-2.24-1.753-4.553-2.848-6.748a26.089 26.089 0 0 0-2.24-3.697c-2.294-3.16-5.385-5.853-8.854-7.657-1.615-.84-3.34-1.565-5.108-2.015-.74-.188-1.505-.247-2.238-.469-.302-.09-.412-.15-.581-.414.124-.209.167-.285.418-.362.565-.17 1.39-.035 1.96.068 2.861.512 5.8 1.86 8.261 3.38 3.077 1.899 5.92 4.637 7.834 7.71 2.32 3.725 3.725 8.1 5.358 12.157l1.863 4.381c.29.687.668 1.379.847 2.103.133.544-.046 1.032.303 1.502.664.894 1.375 1.766 2.268 2.442-.63-4.09-1.51-8.333-2.837-12.26-3.584-10.599-9.93-20.163-19.018-26.814-2.718-1.99-5.534-3.808-8.531-5.35-.758-.39-1.797-.985-2.643-1.131-1.059-.183-2.411-.016-3.473.152l-.185.03zM53.72 87.703c-5.038.367-10.143 1.094-14.862 2.972-3.503 1.394-6.674 3.31-9.947 5.154-5.48 3.088-11.176 5.347-17.512 5.689.608.649 1.682 1.2 2.423 1.718.746.52 1.45 1.108 2.153 1.684l7.119 5.476 3.17 2.299c7.085 4.647 14.848 8.17 22.954 10.593 3.638 1.087 7.512 2.13 11.324 2.252 4.458.142 8.673-.44 13.035-1.256l7.565-1.541 6.116-1.638c2.34-.626 4.727-1.123 6.927-2.166 1.17-.555 2.256-1.431 3.197-2.314l1.441-1.514c-2.178.413-4.41.582-6.616.314-1.182-.144-2.341-.47-3.504-.723-.193-.042-.769-.23-.925-.2-.082.015-.342.22-.423.275-.618.418-1.168.929-1.753 1.39-.635.503-1.307.985-1.996 1.41a33.48 33.48 0 0 1-9.384 3.946c-.497.126-2.22.67-2.61.408.222-.493 1.174-.869 1.684-1.065l4.448-1.528c3.334-1.295 6.132-3.303 8.87-5.565-1.254-.58-2.55-1.043-3.84-1.53-3.899-1.473-8.357-2.796-12.446-1.277-1.734.644-3.358 1.635-4.92 2.614-3.976 2.491-8.064 5.645-12.868 6.26-1.168.15-2.477.085-3.654.038a28.007 28.007 0 0 1-3.065-.316c-.508-.077-1.14-.135-1.615-.338l-.233-.13-.058-.232c.633-.476 2.855-.01 3.673.04.981.061 2.002.09 2.98.009 6.604-.546 11.483-5.34 17.057-8.323.384-.205.766-.406 1.173-.561l2.125-.764c.168-.066.44-.127.552-.269-.744-.34-1.527-.568-2.296-.844-1.992-.715-3.929-1.31-6.015-1.7-1.792-.334-3.615-.484-5.425-.697-5.785-.682-11.488-.886-17.314-.92l-8.755.162-5.067.296c-.618.017-1.315.11-1.911-.072l-.174-.214c.487-.663 1.425-.76 2.207-.875 3.406-.506 6.908-.455 10.344-.488l8.533-.025 4.578-.046 5.156.34c-3.852-3.817-9.669-6.325-14.958-7.32-.825-.154-1.664-.312-2.5-.4-.77-.081-1.549-.039-2.32-.114-.13-.012-.535-.034-.636-.096-.093-.056-.124-.179-.186-.268.34-.376 1.1-.348 1.597-.371 5.857-.272 12.548 2.316 17.318 5.618.78.539 1.588 1.073 2.29 1.713a6.627 6.627 0 0 1 1.268 1.605c3.503.252 6.811.529 10.163 1.684 2.276.785 4.493 1.855 6.794 2.533-.578-1.455-1.334-2.834-2.081-4.207-2.83-5.205-6.872-10.5-12.475-12.894-.728-.312-2.679-.72-3.052-1.355.316-.291.768-.258 1.194-.24.92.04 1.866.441 2.702.8 3.163 1.355 5.564 3.184 7.827 5.795 1.927 2.222 3.558 4.693 4.972 7.268.365.665 2.76 5.37 2.924 5.47.086.051.49.06.603.074l1.575.216c.841.137 1.696.339 2.509.594 1.171.37 2.317.864 3.496 1.193.305.085.728.252 1.04.261.135.005.156-.01.269-.042.22-.556.246-.969.021-1.524-.728-1.799-1.678-3.38-2.719-5.008-1.248-1.955-2.57-3.894-4.145-5.603-.742-.805-1.602-1.514-2.417-2.244-.342-.306-1.15-.914-.97-1.409 1.582.005 3.543 1.962 4.588 3.019 3.054 3.086 5.33 7.002 7.453 10.765.508.9.915 1.857 1.457 2.736 1.64-.594 3.284-1.165 4.987-1.555l7.893-1.713c.986-.249 2.065-.455 2.961-.95-.999-.726-2.079-1.297-3.121-1.954l-4.24-2.815c-3.126-2.089-6.187-4.269-9.439-6.165-2.453-1.431-4.98-2.665-7.564-3.84-4.104-1.869-8.313-3.48-12.738-4.406-3.009-.629-6.072-.906-9.14-1.018-1.587-.057-3.232-.151-4.816-.04zm72.907 21.584c-.062.22-.326.32-.514.445-.261 0-.736.07-.913-.107l-.107.107-.16.054-.262.16.06.311.192.28c-.342.337-.772.551-1.185.79.329.07.693.217 1.009.077l.224.045-.573.43c1.352.563 2.863.84 4.293 1.131l7.842 1.617 3.937.96c.804.209 1.689.555 2.52.556 1.86.003 3.273-.579 4.92-1.386 2.207-1.081 4.379-2.552 5.96-4.454.688-.825 1.207-1.812 1.774-2.72 1.362-2.187 2.981-3.547 5.418-4.37-.323.474-.935.912-1.36 1.308-1.014.945-1.892 1.856-2.707 2.986-1.354 1.876-2.377 3.885-4.19 5.386-1.106.915-2.42 1.736-3.693 2.399-.596.31-1.21.582-1.83.84-.36.148-.725.216-.963.528.114.15.129.212.155.408l.02.183c.83.472 2.21.565 3.157.765 2.163.457 4.337 1.023 6.54 1.257.99.106 2.036.164 3.024.012l.199-.031c4.667-.715 7.557-5.276 10.838-8.186 1.419-1.258 3.091-2.28 4.738-3.21.887-.5 1.85-1.159 2.847-1.392l.146.204c-.034.095-.048.152-.098.235-.592.995-2.556 1.812-3.53 2.376-.696.404-1.378.86-2.02 1.347-2.797 2.12-4.77 5.025-7.53 7.149-1.198.921-2.72 1.67-4.155 2.137 1.717.332 3.505.345 5.252.443 1.709.097 3.601.338 5.299.124 2.603-.33 5.616-2.24 7.733-3.698 2.024-1.394 3.84-2.748 6.261-3.365.738-.188 1.422-.212 2.18-.201 2.299.032 4.475.976 6.605 1.74.811.291 1.969.543 2.574 1.166l-.096.181c-.978.12-2.267-.516-3.182-.848-2.106-.765-4.343-1.665-6.629-1.496-3.57.264-6.07 2.992-8.988 4.7-.702.412-1.456.75-2.187 1.105-.416.202-.825.346-1.13.708l.047.323c.601.174 1.226.15 1.847.186l3.06.14 21.832.18 4.331.182c1.344.1 2.62.266 3.976.252-1.523-1.137-3.226-2.04-4.752-3.165-6.938-5.119-13.498-10.73-21.529-14.136-2.119-.898-4.33-1.56-6.533-2.209-3.45-1.015-7.034-1.873-10.61-2.3-5.222-.622-10.371-.742-15.61-.259-2.61.24-5.257.578-7.798 1.243-5.948 1.557-12.033 4.682-16.866 8.484v.155c.424.014.525-.067.89-.262zm-100.61-96.57c.02 1.96.286 3.96.457 5.915.179 2.035.277 4.053.597 6.075.937 5.931 3.477 12.484 7.8 16.77 1.904 1.887 4.421 2.726 6.844 3.715-6.713.847-13.68-.51-20.199-2.078-1.861-.448-3.797-1.26-5.682-1.527 3.753 2.994 6.304 6.852 8.89 10.823 2.34 3.597 4.754 7.34 7.598 10.558 3.548 4.014 7.91 7.427 12.906 9.43 3.814 1.527 8.15 2.34 12.266 1.885 2.819-.312 5.475-1.553 7.895-2.963l-5.139-6.218c-.66-.843-1.435-1.694-1.95-2.633-1.596.71-3.179 1.488-4.836 2.052-5.27 1.792-11.156 1.678-16.351-.292-.356-.135-.648-.27-.94-.516l-.025-.197c.426-.18.93.007 1.381.1l3.076.618c.806.154 1.624.25 2.44.325 1.943.178 4.067.173 5.993-.176l2.283-.504c1.96-.576 4.339-1.443 6.043-2.582l-7.957-10.648c-4.311 2.794-9.274 3.72-14.316 2.63-3.376-.729-7.48-2.61-9.583-5.48 2.011.737 3.597 2.033 5.487 2.988 5.06 2.555 10.797 2.375 15.872.022 1.043-.484 2.05-1.178 3.137-1.538l3.065 4.226c.586.82 1.22 2.05 2.11 2.553-.496-1.687-1.429-3.36-2.154-4.971-2.64-5.861-5.422-11.436-8.82-16.907-.659.21-1.265.57-1.907.828-.602.24-1.241.367-1.874.495-.96.195-1.981.112-2.934-.083l-.152-.03c-.722-.147-1.466-.424-2.13-.738-2.46-1.165-5-3.268-5.922-5.918a4.121 4.121 0 0 1-.228-1.394c.17-.268.18-.261.483-.366.487.318.593 1.075.851 1.6.211.43.492.854.764 1.247 1.766 2.548 5.798 5.467 9.068 4.794 1.247-.257 2.248-.822 3.294-1.519l-17.5-20.371zm77.846 99.592c-2.171 1.6-3.696 3.772-5.332 5.878l-2.477 3.07c-.9 1.15-1.758 2.335-2.792 3.372-1.45 1.454-3.198 2.753-4.91 3.889-2.466 1.636-5.098 3.016-7.678 4.459l-5.033 2.941-8.098 4.42-7.009 4.264-13.22 8.054-9.329 5.947c-1.817 1.234-4.078 2.642-5.476 4.345.117.116.049.08.201.115l6.352-.203c3.376-.006 6.803.19 10.163-.137 13.665-1.33 26.587-7.462 36.175-17.283 2.463-2.522 4.744-5.187 6.68-8.139 2.14-3.266 3.809-6.864 5.398-10.423l6.513-14.354c-.065-.197-.006-.139-.128-.215zm21.246 1.182c1.92 1.341 3.924 2.53 5.79 3.956 6.45 4.933 12.516 10.595 20.029 13.905 3.436 1.515 7.114 2.486 10.77 3.3 6.59 1.47 13.242 1.65 19.899.46a52.853 52.853 0 0 0 14.306-4.769c3.231-1.617 6.326-3.458 9.654-4.887 1.98-.85 4.13-1.408 6.184-2.062-1.681-.452-3.322-.566-5.046-.711-4.896-.413-9.832-.218-14.744-.218l-13.362-.298-.214.133c.487 1.092 4.317 2.727 5.53 3.191.897.343 1.892.655 2.84.816 1.636.279 3.116.313 4.7.912-1.43.143-2.727.07-4.148-.058-1.014-.197-2.05-.368-3.04-.67-1.831-.56-3.572-1.454-5.206-2.441-1.112-.672-2.113-1.551-3.366-1.941-.992-.308-2.03-.333-3.058-.395-2.753-.167-5.492-.03-8.243-.29l.174.577c.454 1.603 1.49 3.4 2.548 4.69 2.443 2.98 5.73 4.768 9.576 5.166 2.407.249 4.924.098 7.277-.476 2.734-.667 5.383-1.886 8.004-2.9a43.176 43.176 0 0 1 6.806-2.034c-1.208 1.142-3.41 1.565-4.935 2.154-3.325 1.284-6.512 2.89-10.013 3.671-1.942.433-3.846.534-5.829.48-3.98-.106-8.288-1.662-11.043-4.601-1.056-1.126-1.94-2.351-2.588-3.757l-1.026-2.535c-.062-.15-.16-.473-.294-.552-.058-.033-.472-.037-.561-.045l-1.526-.18-8.983-1.33c-5.392-1.048-10.694-2.642-16.02-3.978l-5.713-1.238c-1.71-.356-3.395-.825-5.129-1.045zm14.896 28.574c-.113.929.759 2.189 1.102 3.047l1.33 3.544a59.777 59.777 0 0 1 2.673 9.308c.554 2.795.579 5.85 1.489 8.555.6 1.781 1.567 3.353 2.717 4.827 1.77 2.271 4.4 4.158 6.79 5.74.944.623 1.977 1.166 2.848 1.887l-.077.178c-.693.017-1.32-.406-1.973-.347l-.097.322c.526.624 1.827 1.153 2.566 1.534 5.134 2.651 10.528 4.805 15.897 6.928l7.443 2.966 4.58 2.28 3.053 1.678c.527.275 1.089.617 1.67.752l.301-.161c.05-.406-.325-.988-.473-1.368-.716-1.834-1.334-3.33-2.558-4.896-5.117-6.555-11.567-11.842-17.586-17.51l-8.425-7.743c-1.266-1.132-2.518-2.408-3.913-3.375.78 2.227 1.258 4.466 1.826 6.746.504 2.017 1.02 4.001 1.957 5.871 1.874 3.744 5.721 6.622 9.106 8.911 2.65 1.793 5.682 3.22 8.09 5.316-1.947-.626-3.491-1.64-5.25-2.65-5.017-2.877-10.346-6.016-13.105-11.352-2.389-4.62-2.364-9.978-5.098-14.51-.955-1.583-2.299-3.044-3.558-4.39-3.017-3.226-6.362-6.076-9.642-9.021l-2.364-2.146c-.41-.362-.784-.764-1.32-.92zM77.65 16.275c-1.19.761-2.148 1.656-3.145 2.65-4.88 4.86-7.234 11.246-8.706 17.84-.453 2.026-.595 4.117-.577 6.187.03 3.542.552 7.378 2.521 10.415 2.894 4.464 6.742 8.254 12.11 9.347 1.394.283 2.967.348 4.386.302.19-2.006.003-4.107.058-6.134l.363-6.178c.009-.51.034-.998-.145-1.481l-.242-.1c-.617.29-1.113.788-1.648 1.204-1.115.867-2.592 1.216-3.948 1.491-.903.184-1.835.179-2.753.18-2.402.006-4.643-.276-6.687-1.65-1.193-.802-2.029-1.863-2.668-3.14l1.822 1.442c.628.477 1.243.836 1.94 1.2 2.457 1.29 6.507 1.53 9.161.66a15.773 15.773 0 0 0 3.549-1.671c-1.53-.784-3.07-1.529-4.515-2.466-3.371-2.185-7.11-5.784-8.41-9.675-.25-.747-.61-2.002-.319-2.768l.188-.12c.19.066.211.026.306.22.216.443.303.982.446 1.454.18.594.435 1.199.72 1.75 1.971 3.81 5.375 7.004 9.14 9.02 1.304.698 2.736 1.203 4.012 1.931l1.167-9.837c-1.604-.828-2.797-1.911-4.043-3.202-2.23-2.31-4.154-5.052-5.142-8.132l-.365-1.51c-.446-2.138-.202-4.629.616-6.643.115-.284 1.301-2.448 1.27-2.533-.019-.053-.082-.077-.123-.116l-.339.062zM93.89 121.2l-5.8 1.427-14.023 3.54c-3.69.853-7.522 1.029-11.225 1.883-1.61.372-3.138 1.004-4.648 1.661-7.002 3.05-12.688 8.212-16.88 14.567-2.115 3.206-3.676 6.63-5.381 10.055-.901 1.81-2.017 3.739-2.639 5.656l2.03-1.59 8.28-5.538 4.717-2.85c1.26-.741 2.505-1.42 3.632-2.36-1.603-.463-3.25-.49-4.902-.285l-.154.017c-1.57.192-3.203.82-4.604 1.522-1.096.55-2.083 1.173-3.24 1.602 2.616-2.59 6.036-4.276 9.786-4.285.755-.002 1.65.06 2.376.27.363.105 1.642.734 1.927.644.505-.159 1.135-.798 1.591-1.097.886-.582 1.87-1.037 2.786-1.576-2.053-.724-3.775-.85-5.93-.539-1.108.259-2.323.686-3.45.805 2.257-1.547 4.824-2.21 7.55-1.725 1.025.182 2.089.528 3.035.964l9.58-5.846c-1.096-.468-2.195-.738-3.342-1.041-2.51-.664-5.259-1.2-7.858-1.17-1.256.014-2.519.26-3.771.37-.268.024-.514.129-.706-.071.072-.229.002-.17.148-.247.863-.453 1.806-.624 2.762-.745 3.92-.496 8.241.476 11.97 1.65.612.194 1.152.514 1.706.833l4.28-2.521c-.779-.37-1.546-.688-2.376-.923-1.41-.4-2.866-.623-4.274-1.052-.606-.184-1.183-.337-1.632-.809l.048-.182c.986-.076 2.235.371 3.203.614 1.266.316 2.596.57 3.825 1.01.37.132 2.07 1.013 2.177 1.01.135-.002.74-.43.885-.517l3.911-2.43c-1.728-.837-3.482-1.606-5.36-2.05-1.03-.244-2.147-.341-3.202-.451-.602-.063-1.436-.033-1.97-.334l.076-.177c.79-.221 1.68-.187 2.494-.15 2.799.126 5.554.891 7.992 2.29l.782.492c1.318-.397 2.785-1.321 3.95-2.068-1.222-.72-2.41-1.308-3.783-1.693-.727-.204-1.498-.295-2.197-.585l-.05-.203c.577-.391 1.622-.121 2.266.008.703.141 1.421.385 2.085.651.412.165 2.457 1.186 2.698 1.17.209-.013.958-.551 1.168-.687 2.894-1.88 6.083-3.994 8.103-6.836l-.103-.137-.32.059zm33.741-76.675c-1.736 1.465-3.333 3.202-4.942 4.81-2.233 2.23-4.737 4.264-6.387 7.007-.429.713-.791 1.735-.864 2.56-.094 1.055.389 1.745.982 2.543 2.056-3.797 3.267-8.135 6.686-11.039-.6 1.666-1.451 3.122-2.224 4.704l-1.978 4.367c-.405.895-.943 1.802-1.175 2.756.365.177.807.328 1.053.661-.104.233-.211.375-.457.48-.322.135-.6.11-.938.067-.2.376-.247.873-.378 1.286l-1.117 3.7c-.274.879-.686 1.842-.697 2.771.285.205.748.138 1.096.084 1.95-.3 3.79-1.842 5.042-3.289.374-.433.905-1.365 1.45-1.528.154.188.122.271.095.509-.159 1.376-2.184 3.134-3.262 3.923-.84.614-1.9 1.13-2.918 1.34-.534.11-1.087.103-1.626.169a3.833 3.833 0 0 0-.252.042c-.143.184-.274 1.275-.338 1.565l-1.4 6.262c.725-.087 1.396-.192 2.094-.408l.16-.048c.943-.298 1.838-.808 2.684-1.311a14.527 14.527 0 0 0 3.684-3.64c.382-.54.692-1.168 1.12-1.67.16-.187.27-.195.496-.28l.194.128c-.012 1.577-1.82 3.605-2.888 4.672-2.014 2.015-4.918 3.55-7.774 3.857-.824 4.541-2.075 9.01-2.57 13.606-.1.913-.258 1.847-.222 2.767 1.602-.391 3.152-.814 4.654-1.512 2.993-1.391 5.417-3.687 7.12-6.492 5.067-8.35 4.646-18.805 4.626-28.21-.004-1.934-.084-3.909.02-5.838.13-2.442.464-4.9.823-7.316.2-1.34.49-2.637.555-3.996l-.227-.059zM96.753 13.43c-3.963 3.701-5.792 9.005-7.5 14.008.89.25 1.959.428 2.709.975-.085.359-.28.48-.6.67-.6.355-1.725-.124-2.374-.249l-.017.095-1.533 8.508c.124.174.174.213.385.26.352.075.822-.015 1.176-.07 1.607-.245 3.008-1.04 4.293-1.997.526-.393 1.037-.957 1.669-1.16l.183.066c.032.568-.115.796-.48 1.21-1.52 1.722-3.67 3.202-6.043 3.328-.453.024-.928-.042-1.379-.089l-1.151 9.799c2.809-.069 5.156-.638 7.147-2.728.317-.333.61-.66.863-1.046.215-.327.437-.65.605-1.005.173-.365.522-1.436.846-1.598.286.29.31.608.297.997-.013.42-.168.766-.333 1.145a10.422 10.422 0 0 1-6.004 5.124c-1.117.363-2.18.395-3.344.36l-.353 12.886c3.911-1.036 6.793-3.586 8.775-7.056 3.74-6.547 4.03-14.53 3.37-21.868l-1.23-11.008c-.253-3.194.016-6.366.023-9.557zm-62.888 6.554c3.353 3.652 7.196 7.025 10.13 11.027 2.033 2.772 3.455 5.831 5.287 8.711 1.55-1.044 2.317-2.515 2.755-4.291.05-.201.124-.712.258-.854.078-.082.192-.12.288-.18l.43.197c.312 1-.44 2.766-.913 3.671-.589 1.131-1.261 1.855-2.28 2.607l5.167 10.798c1.72 3.67 3.492 7.33 5.669 10.757 2.072 3.262 4.528 6.172 6.94 9.174 1.321 1.548 2.716 3.395 4.346 4.617-.749-1.643-1.711-3.164-2.59-4.738-2.306-4.13-4.718-8.313-6.29-12.791-1.436-4.094-2.055-8.268-3.172-12.433-2.222-8.284-6.27-15.876-13.806-20.476-3.814-2.328-8.113-4.053-12.219-5.796zm29.218 32.99c.583 2.16 1.378 4.155 2.235 6.215 1.948 4.68 4.301 9.18 6.675 13.654 1.395 2.63 2.581 5.331 4.466 7.67 2.573 3.191 5.858 5.782 8.927 8.463l3.695 3.369c-1.44-4.343-3.022-8.756-3.904-13.251-.894-4.558-1.046-9.286-1.076-13.92-5.44.19-10.61-1.599-14.607-5.366l-6.411-6.834zm48.484 7.45c-1.175 1.022-2.093 2.26-3.078 3.454-4.198 5.091-8.345 11.41-8.803 18.192-.298 4.402.255 9.07 3.274 12.522 1.599 1.826 3.308 2.61 5.592 3.31l1.926-11.895c.314-1.712.52-3.622 1.147-5.247-2.375-1.639-4.498-3.773-5.069-6.733-.465-2.408.098-5.097 1.525-7.107.216-.305.494-.572.758-.834-.64 2.785-2.225 5.37-1.14 8.293l.066.189c.701 1.933 2.323 3.798 4.002 4.945l1.831-7.695-.103-.066c-1.351-.887-2.134-1.999-2.454-3.6-.344-1.715-.085-3.941.336-5.62.165-.656.564-1.445.503-2.115l-.313.008zM87.118 11.549c-3.539 1.049-6.61 2.547-8.468 5.908-1.564 2.832-1.923 5.863-1 8.97.975 3.28 3.334 6.318 5.743 8.69.796.77 1.59 1.398 2.496 2.03l1.784-8.955-.073-.048c-1.763-1.227-3.154-3.725-3.501-5.82-.508-3.064.333-6.43 2.16-8.924.395-.54 1.222-1.125 1.291-1.797-.195-.083-.222-.087-.432-.054zm42.678 121.274c.587 1.621 1.477 3.134 2.22 4.687l3.841 7.906c.722 1.621 1.313 3.34 1.907 5.012l3.286 10.383 1.485 5.13c.376 1.22.697 2.501 1.434 3.566.944 1.363 2.607 2.628 3.889 3.657 2.019 1.622 4.018 3.09 6.235 4.437.625.38 1.243.818 1.902 1.139a.742.742 0 0 0 .438.082l.134-.07v-.274a10.111 10.111 0 0 0-2.202-1.54c-.606-.305-1.302-1.084-1.85-1.538-2.981-2.475-5.712-4.998-6.913-8.811-.813-2.583-.858-5.22-1.406-7.835-.893-4.253-2.204-8.301-3.812-12.34-.901-2.261-1.829-4.52-3.234-6.526-1.023-1.46-2.308-2.656-3.572-3.903-1.175-1.157-2.366-2.298-3.782-3.162zM97.606 8.755c-.927.316-1.848.678-2.794.93l-3.525.8c-.506.118-1.105.212-1.554.479-.418.248-.796.692-1.124 1.048-.906.98-1.754 2.112-2.348 3.312-1.092 2.21-1.82 4.93-.99 7.359.352 1.031.812 1.904 1.436 2.793.405.505.814.948 1.294 1.382 1.363-4.034 2.693-7.87 5.13-11.414 1.517-2.204 3.714-4.145 4.745-6.63l-.27-.06zM114.82 56.91c-.422.546-.893 1.107-1.233 1.709-1.385 2.453-2.125 6.09-1.77 8.903.12.958.671 2.346 1.472 2.927l.146.1.263-.134c.884-2.545 1.28-5.128 2.587-7.533-1.195-1.387-1.958-2.47-1.845-4.39.033-.553.255-1.053.38-1.582zm-13.062 53.68c-.202.137-.365.314-.612.307l-.338-.012c-1.027-.049-2.25.378-3.26.602-2.148.477-4.328.88-6.429 1.551l-.01.157.358.108c2.87.018 5.382-.239 8.072-1.272.65-.25 1.378-.487 1.92-.935.233-.192.486-.285.762-.398l-.01-.148a1.122 1.122 0 0 0-.453.04zm21.979.736c.413-.238.843-.452 1.185-.789l-.192-.28c-.776-.01-1.51.646-2.136 1.086l-.02.149c.38.052.802-.037 1.163-.166z"/><path fill="#2B2DB6" d="m41.553 150.84.148-.017c.723-.07 1.572-.074 2.14.443.258.235.395.493.405.843-.194.131-.095.127-.292.032-.423-.203-.904-.486-1.367-.561-.665-.108-1.414.128-2.06.287l-1.408.493c-.317.094-.767.277-1.054.125l.077-.139c.51-.828 2.488-1.262 3.411-1.506zM85.909 139.81l.203.004.046.157a7.06 7.06 0 0 1-.853 1.557c-.62.883-1.388 1.64-2.147 2.403-2.245 2.254-4.861 4.164-7.476 5.964-1.138.784-2.252 1.65-3.548 2.154l-.166-.1c.453-.853 1.653-1.594 2.416-2.148l2.364-1.739c2.37-1.708 4.5-3.71 6.618-5.713.864-.817 1.496-1.94 2.543-2.54zM74.694 143.247l.34-.006-.037.167c-1.302 1.142-3.04 1.807-4.54 2.657-1.628.922-3.159 1.939-4.693 3.006-2.164 1.505-4.133 3.282-6.046 5.089-1.08 1.02-2.136 2.132-3.29 3.066-3.147 2.546-7.238 4.108-11.257 4.464l-.43-.13-.03-.2c1.02-.606 2.439-.747 3.579-1.063 2.005-.555 4.212-1.574 5.906-2.782 2.53-1.803 4.542-4.07 6.808-6.165 2.8-2.59 5.988-4.624 9.393-6.323 1.375-.686 2.808-1.386 4.297-1.78zM126.627 109.287c2.89-.984 5.579-2.641 8.337-3.969 4.057-1.953 8.435-3.138 12.845-3.963l1.707-.344c.042-.01.387-.065.411-.088.061-.058.03-.176.088-.236.032-.035.426-.103.483-.103.208-.003.367.062.558.13.607.214 5.924-.312 6.488-.63l.259-.161.276-.094-.053-.1.377.006-.152.122.836.428c.382.162 1.008.145 1.427.184 1.204.114 2.429.176 3.615.43l8.885 2.304c2.568.693 5.128 1.252 7.643 2.138 1.478.52 2.89 1.234 4.336 1.836 1.733.722 3.314 1.195 4.709 2.515-1.332-.253-2.482-.779-3.723-1.306-2.043-.87-4.068-1.833-6.165-2.565-2.845-.993-5.763-1.578-8.673-2.33-2.833-.733-5.664-1.65-8.563-2.09-3.78-.572-7.512-.286-11.274.276-3.96.591-7.733 1.435-11.508 2.79-4.696 1.685-8.952 4.033-13.39 6.268l-1.116.558-.312.16-.007-.004-.224-.045c-.316.14-.68-.007-1.01-.078.414-.238.844-.452 1.186-.789l-.192-.28-.06-.312.261-.16.16-.053.108-.107c.177.177.652.107.913.107.188-.125.452-.225.514-.445zM44.81 90.61c.324-.099.615-.072.952-.04 4.2.41 11.966 5.048 14.502 8.369.33.432.447.707.376 1.24-.658-.066-1.123-.649-1.598-1.07-.76-.676-1.528-1.352-2.35-1.952a44.52 44.52 0 0 0-7.316-4.36c-1.032-.486-2.106-.835-3.167-1.247-.494-.191-1.055-.353-1.468-.69l.068-.25zM55.866 106.602c.721-.071 1.346.018 2.056.142-1.765.806-3.654 1.2-5.453 1.936-4.675 1.911-9.3 4.69-14.313 5.555-2.229.385-4.574.12-6.743-.464a14.04 14.04 0 0 1-2.07-.835c2.154.332 4.344.723 6.533.606 7.213-.382 12.828-6.217 19.99-6.94zM155.173 141.142l.159-.043.267.214c-.073.218-.008.126-.207.269l.02.19a1.48 1.48 0 0 1-.5.112c-.248.009-.448.11-.673.205l-.134.23c-1.577.277-3.084.456-4.683.485.557-.272 1.179-.564 1.786-.698.809-.178 1.647-.299 2.466-.414.337-.048.87-.062 1.174-.22.097-.05.243-.246.325-.33zM131.867 157.749l.26.02c.05 1.316-.145 2.668-.17 3.99-.027 1.357.171 2.793.347 4.138.102.784.259 1.561.464 2.325.177.657.658 1.587.596 2.25l-.322.072c-.32-.245-.511-.7-.666-1.065-1.167-2.756-1.33-6.29-.993-9.228.1-.864.166-1.685.484-2.502zM122.916 150.444l.23-.01c.111.3.176.537.116.856-.941 5.007-4.845 8.967-5.365 14.055-.083.809-.111 1.671-.006 2.48.087.66.242 1.306.436 1.943.122.398.408 1.065.279 1.46l-.22.056c-.482-.269-.657-.868-.827-1.366-1.807-5.285.74-9.386 2.914-13.985l2.443-5.489zM110.551 165.376h.266c1.031 1.362 1.602 3.313 2.29 4.882a23.408 23.408 0 0 0 2.57 4.415c1.104 1.483 2.42 2.797 3.553 4.257l2.83 3.848a66.238 66.238 0 0 0 6.75 7.456c1.15 1.091 2.405 2.11 3.666 3.071 1.239.945 2.445 1.761 3.522 2.904l-.174-.054c-1.184-.364-1.999-.939-3.024-1.613-2.915-1.917-5.594-4.35-7.917-6.946-2.196-2.454-4.055-5.178-6.03-7.806l-3.558-4.399c-1.563-2.06-2.705-4.286-3.754-6.642-.437-.981-1.05-2.282-.99-3.373zM119.388 124.878c.244.078.283.104.456.3.667.752.818 1.82.865 2.793.232 4.832-2.585 8.935-4.755 13.012a57.345 57.345 0 0 0-2.442 5.213c-1.262 3.09-2.04 6.266-2.277 9.6-.022.21-.027.224-.16.406l-.162-.055c-.444-1.392-.288-2.995-.116-4.426.537-4.486 2.704-8.726 4.814-12.662 1.895-3.535 4.058-6.876 4.2-11.021.035-1.055-.225-2.13-.423-3.16z"/></svg>